<svg width="113" height="113" viewBox="0 0 113 113" fill="none" xmlns="http://www.w3.org/2000/svg">
<path d="M49.8543 28.4063C39.6263 25.6658 28.8634 30.9786 26.202 40.911C24.3661 47.7629 26.0288 54.3913 29.0007 60.3093C31.9624 66.207 36.3586 71.6692 40.4047 76.3392L47.3858 84.3966C48.1504 85.2791 49.3751 85.6072 50.4784 85.2253L60.5529 81.7379C66.392 79.7167 72.9303 77.1843 78.444 73.5576C83.9767 69.9184 88.7309 65.0094 90.5669 58.1575C93.2283 48.2251 86.5638 38.2426 76.3358 35.5021C71.0635 34.0893 65.7618 35.3184 61.5755 37.6251C59.1035 33.5343 55.1266 29.8191 49.8543 28.4063Z" fill="black"/>
</svg>
